<svg width="16" height="16" viewBox="0 0 16 16" fill="none" xmlns="http://www.w3.org/2000/svg">
<rect x="3" y="15" width="3.04355" height="9.73897" rx="0.608697" transform="rotate(-90 3 15)" fill="#09090B"/>
<path fill-rule="evenodd" clip-rule="evenodd" d="M5.43473 10.7395C5.77091 10.7395 6.04343 10.467 6.04343 10.1308V7.23705C6.04343 6.70165 6.68488 6.42706 7.07228 6.79662L9.507 9.11927C9.62741 9.23414 9.69554 9.39329 9.69554 9.5597V10.1308C9.69554 10.467 9.96807 10.7395 10.3042 10.7395H12.1303C12.4664 10.7395 12.739 10.467 12.739 10.1308V1.60886C12.739 1.27269 12.4664 1.00017 12.1303 1.00017H10.3042C9.96807 1.00017 9.69554 1.27269 9.69554 1.60886V3.67096C9.69554 4.20636 9.05409 4.48095 8.66669 4.11139L6.17545 1.73483C6.09114 1.65439 6.04343 1.54294 6.04343 1.42641V1.42641C6.04343 1.191 5.85259 1.00017 5.61718 1.00017H5.40546C5.40539 1.00017 5.40532 1.00014 5.40526 1.00009L5.40525 1.00007C5.40514 0.999972 5.40497 0.999976 5.40487 1.00008V1.00008C5.40482 1.00014 5.40474 1.00017 5.40467 1.00017H3.6087C3.27252 1.00017 3 1.27269 3 1.60886V10.1308C3 10.467 3.27252 10.7395 3.6087 10.7395H5.43473Z" fill="#09090B"/>
</svg>
